<mxfile host="app.diagrams.net" modified="2023-02-10T07:17:15.895Z" agent="5.0 (Windows NT 10.0; Win64; x64) AppleWebKit/537.36 (KHTML, like Gecko) Chrome/109.0.0.0 Safari/537.36" etag="9qlDWbTWzyLcAPgDqoRC" version="20.8.19" type="github">
  <diagram name="Page-1" id="e7e014a7-5840-1c2e-5031-d8a46d1fe8dd">
    <mxGraphModel dx="1235" dy="684" grid="1" gridSize="10" guides="1" tooltips="1" connect="1" arrows="1" fold="1" page="1" pageScale="1" pageWidth="1169" pageHeight="826" background="none" math="0" shadow="0">
      <root>
        <mxCell id="0" />
        <mxCell id="1" parent="0" />
        <mxCell id="2" value="应用层" style="swimlane;whiteSpace=wrap" parent="1" vertex="1">
          <mxGeometry x="250" y="128" width="194.5" height="472" as="geometry" />
        </mxCell>
        <mxCell id="5" value="" style="ellipse;shape=startState;fillColor=#000000;strokeColor=#000000;" parent="2" vertex="1">
          <mxGeometry x="82.25" y="40" width="30" height="30" as="geometry" />
        </mxCell>
        <mxCell id="7" value="接入监控系统" style="" parent="2" vertex="1">
          <mxGeometry x="42.25" y="110" width="110" height="50" as="geometry" />
        </mxCell>
        <mxCell id="8" value="数据采集" style="" parent="2" vertex="1">
          <mxGeometry x="42.25" y="220" width="110" height="50" as="geometry" />
        </mxCell>
        <mxCell id="10" value="数据上报" style="" parent="2" vertex="1">
          <mxGeometry x="42.25" y="332" width="110" height="50" as="geometry" />
        </mxCell>
        <mxCell id="DrsEd7ObtTv_xb2q4TgE-41" value="" style="endArrow=classic;html=1;rounded=0;strokeColor=#330000;entryX=0.494;entryY=0.004;entryDx=0;entryDy=0;entryPerimeter=0;" edge="1" parent="2" target="8">
          <mxGeometry width="50" height="50" relative="1" as="geometry">
            <mxPoint x="96.75" y="162" as="sourcePoint" />
            <mxPoint x="377.75" y="252" as="targetPoint" />
          </mxGeometry>
        </mxCell>
        <mxCell id="DrsEd7ObtTv_xb2q4TgE-42" value="" style="endArrow=classic;html=1;rounded=0;strokeColor=#330000;entryX=0.508;entryY=-0.036;entryDx=0;entryDy=0;entryPerimeter=0;" edge="1" parent="2" target="7">
          <mxGeometry width="50" height="50" relative="1" as="geometry">
            <mxPoint x="97.25" y="69.99999999999989" as="sourcePoint" />
            <mxPoint x="377.75" y="252" as="targetPoint" />
          </mxGeometry>
        </mxCell>
        <mxCell id="DrsEd7ObtTv_xb2q4TgE-66" value="" style="endArrow=classic;html=1;rounded=0;strokeColor=#330000;exitX=0.473;exitY=1.073;exitDx=0;exitDy=0;exitPerimeter=0;entryX=0.465;entryY=-0.019;entryDx=0;entryDy=0;entryPerimeter=0;" edge="1" parent="2" source="8" target="10">
          <mxGeometry width="50" height="50" relative="1" as="geometry">
            <mxPoint x="480" y="322" as="sourcePoint" />
            <mxPoint x="530" y="272" as="targetPoint" />
          </mxGeometry>
        </mxCell>
        <mxCell id="3" value="接入层" style="swimlane;whiteSpace=wrap" parent="1" vertex="1">
          <mxGeometry x="444.5" y="128" width="195.5" height="472" as="geometry" />
        </mxCell>
        <mxCell id="15" value="校验" style="" parent="3" vertex="1">
          <mxGeometry x="42.75" y="102" width="110" height="50" as="geometry" />
        </mxCell>
        <mxCell id="16" value="参数处理" style="" parent="3" vertex="1">
          <mxGeometry x="42.75" y="220" width="110" height="50" as="geometry" />
        </mxCell>
        <mxCell id="18" value="数据加工" style="" parent="3" vertex="1">
          <mxGeometry x="42.75" y="325" width="110" height="50" as="geometry" />
        </mxCell>
        <mxCell id="DrsEd7ObtTv_xb2q4TgE-62" value="" style="endArrow=classic;html=1;rounded=0;strokeColor=#330000;entryX=0.491;entryY=-0.028;entryDx=0;entryDy=0;entryPerimeter=0;" edge="1" parent="3" target="16">
          <mxGeometry width="50" height="50" relative="1" as="geometry">
            <mxPoint x="96.75" y="152" as="sourcePoint" />
            <mxPoint x="82.75" y="262" as="targetPoint" />
          </mxGeometry>
        </mxCell>
        <mxCell id="4" value="ES" style="swimlane;whiteSpace=wrap;strokeColor=default;startSize=23;" parent="1" vertex="1">
          <mxGeometry x="640" y="128" width="190" height="472" as="geometry" />
        </mxCell>
        <mxCell id="33" value="数据信息" style="" parent="4" vertex="1">
          <mxGeometry x="40" y="222" width="110" height="50" as="geometry" />
        </mxCell>
        <mxCell id="DrsEd7ObtTv_xb2q4TgE-46" value="api层" style="swimlane;whiteSpace=wrap" vertex="1" parent="1">
          <mxGeometry x="830" y="128" width="190" height="472" as="geometry" />
        </mxCell>
        <mxCell id="DrsEd7ObtTv_xb2q4TgE-68" value="数据清洗" style="" vertex="1" parent="DrsEd7ObtTv_xb2q4TgE-46">
          <mxGeometry x="40" y="92" width="110" height="50" as="geometry" />
        </mxCell>
        <mxCell id="DrsEd7ObtTv_xb2q4TgE-69" value="数据聚合" style="" vertex="1" parent="DrsEd7ObtTv_xb2q4TgE-46">
          <mxGeometry x="40" y="222" width="110" height="50" as="geometry" />
        </mxCell>
        <mxCell id="DrsEd7ObtTv_xb2q4TgE-70" value="" style="endArrow=classic;html=1;rounded=0;strokeColor=#330000;entryX=0.491;entryY=-0.028;entryDx=0;entryDy=0;entryPerimeter=0;" edge="1" target="DrsEd7ObtTv_xb2q4TgE-69" parent="DrsEd7ObtTv_xb2q4TgE-46">
          <mxGeometry width="50" height="50" relative="1" as="geometry">
            <mxPoint x="94" y="142" as="sourcePoint" />
            <mxPoint x="80" y="252" as="targetPoint" />
          </mxGeometry>
        </mxCell>
        <mxCell id="DrsEd7ObtTv_xb2q4TgE-57" value="" style="endArrow=classic;html=1;rounded=0;strokeColor=#330000;exitX=1.003;exitY=0.576;exitDx=0;exitDy=0;exitPerimeter=0;entryX=-0.025;entryY=0.572;entryDx=0;entryDy=0;entryPerimeter=0;" edge="1" parent="1" source="10" target="15">
          <mxGeometry width="50" height="50" relative="1" as="geometry">
            <mxPoint x="510" y="440" as="sourcePoint" />
            <mxPoint x="460" y="260" as="targetPoint" />
            <Array as="points">
              <mxPoint x="430" y="490" />
              <mxPoint x="430" y="260" />
            </Array>
          </mxGeometry>
        </mxCell>
        <mxCell id="DrsEd7ObtTv_xb2q4TgE-63" value="" style="endArrow=classic;html=1;rounded=0;strokeColor=#330000;" edge="1" parent="1">
          <mxGeometry width="50" height="50" relative="1" as="geometry">
            <mxPoint x="537.25" y="400" as="sourcePoint" />
            <mxPoint x="537.25" y="450" as="targetPoint" />
          </mxGeometry>
        </mxCell>
        <mxCell id="DrsEd7ObtTv_xb2q4TgE-64" value="" style="endArrow=classic;html=1;rounded=0;strokeColor=#330000;exitX=1.003;exitY=0.547;exitDx=0;exitDy=0;exitPerimeter=0;entryX=-0.021;entryY=0.527;entryDx=0;entryDy=0;entryPerimeter=0;" edge="1" parent="1" source="18" target="33">
          <mxGeometry width="50" height="50" relative="1" as="geometry">
            <mxPoint x="780" y="430" as="sourcePoint" />
            <mxPoint x="830" y="380" as="targetPoint" />
            <Array as="points">
              <mxPoint x="630" y="480" />
              <mxPoint x="630" y="376" />
            </Array>
          </mxGeometry>
        </mxCell>
        <mxCell id="DrsEd7ObtTv_xb2q4TgE-71" value="" style="endArrow=classic;html=1;rounded=0;strokeColor=#330000;exitX=1.012;exitY=0.544;exitDx=0;exitDy=0;exitPerimeter=0;entryX=-0.017;entryY=0.395;entryDx=0;entryDy=0;entryPerimeter=0;" edge="1" parent="1" source="33" target="DrsEd7ObtTv_xb2q4TgE-68">
          <mxGeometry width="50" height="50" relative="1" as="geometry">
            <mxPoint x="730" y="450" as="sourcePoint" />
            <mxPoint x="850" y="240" as="targetPoint" />
            <Array as="points">
              <mxPoint x="820" y="377" />
              <mxPoint x="820" y="240" />
            </Array>
          </mxGeometry>
        </mxCell>
        <mxCell id="DrsEd7ObtTv_xb2q4TgE-72" value="数据库" style="swimlane;whiteSpace=wrap;strokeColor=default;startSize=23;" vertex="1" parent="1">
          <mxGeometry x="1020" y="128" width="190" height="472" as="geometry" />
        </mxCell>
        <mxCell id="DrsEd7ObtTv_xb2q4TgE-73" value="Mysql" style="" vertex="1" parent="DrsEd7ObtTv_xb2q4TgE-72">
          <mxGeometry x="40" y="220" width="110" height="50" as="geometry" />
        </mxCell>
        <mxCell id="DrsEd7ObtTv_xb2q4TgE-50" value="" style="ellipse;shape=endState;fillColor=#000000;strokeColor=#330000;" vertex="1" parent="DrsEd7ObtTv_xb2q4TgE-72">
          <mxGeometry x="80" y="362" width="30" height="30" as="geometry" />
        </mxCell>
        <mxCell id="DrsEd7ObtTv_xb2q4TgE-77" value="" style="endArrow=classic;html=1;rounded=0;strokeColor=#330000;" edge="1" parent="DrsEd7ObtTv_xb2q4TgE-72" target="DrsEd7ObtTv_xb2q4TgE-50">
          <mxGeometry width="50" height="50" relative="1" as="geometry">
            <mxPoint x="95" y="272" as="sourcePoint" />
            <mxPoint x="-290" y="272" as="targetPoint" />
          </mxGeometry>
        </mxCell>
        <mxCell id="DrsEd7ObtTv_xb2q4TgE-75" value="" style="endArrow=classic;html=1;rounded=0;strokeColor=#330000;entryX=0;entryY=0.54;entryDx=0;entryDy=0;entryPerimeter=0;" edge="1" parent="1" target="DrsEd7ObtTv_xb2q4TgE-73">
          <mxGeometry width="50" height="50" relative="1" as="geometry">
            <mxPoint x="980" y="375" as="sourcePoint" />
            <mxPoint x="730" y="400" as="targetPoint" />
          </mxGeometry>
        </mxCell>
      </root>
    </mxGraphModel>
  </diagram>
</mxfile>
